<svg width="48" height="48" viewBox="0 0 48 48" fill="none" xmlns="http://www.w3.org/2000/svg">
<rect width="48" height="48" rx="24" fill="#259CD8"/>
<path fill-rule="evenodd" clip-rule="evenodd" d="M17.3581 23.5289C21.4924 21.7276 24.2493 20.5401 25.6287 19.9664C29.5672 18.3282 30.3855 18.0437 30.919 18.0343C31.0363 18.0322 31.2986 18.0613 31.4685 18.1992C31.612 18.3156 31.6515 18.4728 31.6703 18.5832C31.6892 18.6936 31.7128 18.9451 31.6941 19.1415C31.4806 21.384 30.5571 26.826 30.0873 29.3376C29.8885 30.4004 29.4971 30.7567 29.1181 30.7916C28.2945 30.8674 27.6692 30.2473 26.8715 29.7244C25.6233 28.9062 24.9181 28.3969 23.7065 27.5985C22.3063 26.6758 23.214 26.1686 24.012 25.3398C24.2208 25.1229 27.8495 21.8224 27.9197 21.5229C27.9285 21.4855 27.9367 21.3459 27.8538 21.2722C27.7708 21.1985 27.6484 21.2237 27.5601 21.2438C27.4349 21.2722 25.4409 22.5901 21.5781 25.1976C21.0121 25.5863 20.4995 25.7757 20.0401 25.7657C19.5338 25.7548 18.5597 25.4794 17.8356 25.244C16.9475 24.9553 16.2416 24.8027 16.303 24.3124C16.3351 24.057 16.6867 23.7959 17.3581 23.5289Z" fill="white"/>
</svg>
