<svg width="48" height="48" viewBox="0 0 48 48" fill="none" xmlns="http://www.w3.org/2000/svg">
<rect width="48" height="48" rx="24" fill="#313538"/>
<path d="M28.1665 15.6667H19.8332C17.5332 15.6667 15.6665 17.5251 15.6665 19.8167V24.8001V25.6334C15.6665 27.9251 17.5332 29.7834 19.8332 29.7834H21.0832C21.3082 29.7834 21.6082 29.9334 21.7498 30.1167L22.9998 31.7751C23.5498 32.5084 24.4498 32.5084 24.9998 31.7751L26.2498 30.1167C26.4082 29.9084 26.6582 29.7834 26.9165 29.7834H28.1665C30.4665 29.7834 32.3332 27.9251 32.3332 25.6334V19.8167C32.3332 17.5251 30.4665 15.6667 28.1665 15.6667ZM20.6665 24.0001C20.1998 24.0001 19.8332 23.6251 19.8332 23.1667C19.8332 22.7084 20.2082 22.3334 20.6665 22.3334C21.1248 22.3334 21.4998 22.7084 21.4998 23.1667C21.4998 23.6251 21.1332 24.0001 20.6665 24.0001ZM23.9998 24.0001C23.5332 24.0001 23.1665 23.6251 23.1665 23.1667C23.1665 22.7084 23.5415 22.3334 23.9998 22.3334C24.4582 22.3334 24.8332 22.7084 24.8332 23.1667C24.8332 23.6251 24.4665 24.0001 23.9998 24.0001ZM27.3332 24.0001C26.8665 24.0001 26.4998 23.6251 26.4998 23.1667C26.4998 22.7084 26.8748 22.3334 27.3332 22.3334C27.7915 22.3334 28.1665 22.7084 28.1665 23.1667C28.1665 23.6251 27.7998 24.0001 27.3332 24.0001Z" fill="white"/>
</svg>
