<svg width="48" height="48" viewBox="0 0 48 48" fill="none" xmlns="http://www.w3.org/2000/svg">
<rect width="48" height="48" rx="24" fill="#313538"/>
<path d="M15 33L16.2722 28.3802C15.4857 27.0242 15.0731 25.4886 15.0774 23.9187C15.0774 18.9995 19.1003 15 24.0387 15C26.437 15 28.6891 15.9282 30.3782 17.6136C32.0716 19.299 33.0043 21.5404 33 23.923C33 28.8422 28.9771 32.8417 24.0344 32.8417H24.0301C22.5301 32.8417 21.0559 32.4653 19.745 31.7552L15 33ZM19.9728 30.1426L20.2435 30.3051C21.3868 30.981 22.6977 31.336 24.0344 31.3403H24.0387C28.1433 31.3403 31.4871 28.0166 31.4871 23.9273C31.4871 21.9468 30.7135 20.086 29.308 18.683C27.9026 17.2799 26.0286 16.51 24.0387 16.51C19.9341 16.5057 16.5903 19.8294 16.5903 23.9187C16.5903 25.3175 16.9814 26.682 17.7292 27.8626L17.9054 28.145L17.1533 30.8783L19.9728 30.1426Z" fill="white"/>
<path d="M15 33L16.2722 28.3802C15.4857 27.0242 15.0731 25.4886 15.0774 23.9187C15.0774 18.9995 19.1003 15 24.0387 15C26.437 15 28.6891 15.9282 30.3782 17.6136C32.0716 19.299 33.0043 21.5404 33 23.923C33 28.8422 28.9771 32.8417 24.0344 32.8417H24.0301C22.5301 32.8417 21.0559 32.4653 19.745 31.7552L15 33ZM19.9728 30.1426L20.2435 30.3051C21.3868 30.981 22.6977 31.336 24.0344 31.3403H24.0387C28.1433 31.3403 31.4871 28.0166 31.4871 23.9273C31.4871 21.9468 30.7135 20.086 29.308 18.683C27.9026 17.2799 26.0286 16.51 24.0387 16.51C19.9341 16.5057 16.5903 19.8294 16.5903 23.9187C16.5903 25.3175 16.9814 26.682 17.7292 27.8626L17.9054 28.145L17.1533 30.8783L19.9728 30.1426Z" fill="white"/>
<path fill-rule="evenodd" clip-rule="evenodd" d="M21.7991 20.1888C21.6315 19.8167 21.4553 19.8081 21.2963 19.8038C21.1673 19.7996 21.0169 19.7996 20.8665 19.7996C20.716 19.7996 20.4754 19.8552 20.2691 20.0776C20.0627 20.3 19.4868 20.839 19.4868 21.9383C19.4868 23.0334 20.2905 24.0942 20.4023 24.244C20.514 24.3937 21.9539 26.7164 24.2275 27.6104C26.1186 28.3547 26.5054 28.205 26.9137 28.1665C27.3221 28.128 28.2375 27.6275 28.4266 27.1056C28.6115 26.5838 28.6115 26.1389 28.5556 26.0448C28.4997 25.9507 28.3493 25.8951 28.1258 25.7839C27.9023 25.6727 26.802 25.1337 26.5957 25.0567C26.3894 24.984 26.239 24.9455 26.0928 25.1679C25.9424 25.3903 25.5126 25.8908 25.3837 26.0405C25.2547 26.1902 25.1215 26.2074 24.898 26.0961C24.6745 25.9849 23.9524 25.7497 23.0971 24.9882C22.4309 24.3979 21.9797 23.6665 21.8507 23.444C21.7218 23.2216 21.8378 23.1018 21.9496 22.9906C22.0484 22.8922 22.1731 22.7297 22.2848 22.6014C22.3966 22.473 22.4352 22.3789 22.5083 22.2292C22.5814 22.0795 22.547 21.9512 22.4911 21.84C22.4352 21.733 21.9968 20.6294 21.7991 20.1888Z" fill="white"/>
</svg>
