<svg width="48" height="48" viewBox="0 0 48 48" fill="none" xmlns="http://www.w3.org/2000/svg">
<rect width="48" height="48" rx="24" fill="#313538"/>
<path d="M28.1665 16.9167H19.8332C17.3332 16.9167 15.6665 18.1667 15.6665 21.0834V26.9167C15.6665 29.8334 17.3332 31.0834 19.8332 31.0834H28.1665C30.6665 31.0834 32.3332 29.8334 32.3332 26.9167V21.0834C32.3332 18.1667 30.6665 16.9167 28.1665 16.9167ZM28.5582 21.9917L25.9498 24.0751C25.3998 24.5167 24.6998 24.7334 23.9998 24.7334C23.2998 24.7334 22.5915 24.5167 22.0498 24.0751L19.4415 21.9917C19.1748 21.7751 19.1332 21.3751 19.3415 21.1084C19.5582 20.8417 19.9498 20.7917 20.2165 21.0084L22.8248 23.0917C23.4582 23.6001 24.5332 23.6001 25.1665 23.0917L27.7748 21.0084C28.0415 20.7917 28.4415 20.8334 28.6498 21.1084C28.8665 21.3751 28.8248 21.7751 28.5582 21.9917Z" fill="white"/>
</svg>
