<svg width="22" height="18" viewBox="0 0 22 18" fill="none" xmlns="http://www.w3.org/2000/svg">
<path fill-rule="evenodd" clip-rule="evenodd" d="M4.14954 5.72873L0.856934 0.200195H3.80013L5.71995 3.4002H21.0664L16.7737 11.6929H7.69386L4.14954 5.72873ZM7.34518 6.06686L9.23788 9.02622H15.1256L16.7516 6.06686H7.34518Z" fill="white"/>
<path d="M11.1496 15.8262C11.1496 16.9308 10.2542 17.8262 9.14962 17.8262C8.04505 17.8262 7.14962 16.9308 7.14962 15.8262C7.14962 14.7216 8.04505 13.8262 9.14962 13.8262C10.2542 13.8262 11.1496 14.7216 11.1496 15.8262Z" fill="white"/>
<path d="M14.483 17.8262C15.5875 17.8262 16.483 16.9308 16.483 15.8262C16.483 14.7216 15.5875 13.8262 14.483 13.8262C13.3784 13.8262 12.483 14.7216 12.483 15.8262C12.483 16.9308 13.3784 17.8262 14.483 17.8262Z" fill="white"/>
</svg>
