<svg width="65" height="64" viewBox="0 0 65 64" fill="none" xmlns="http://www.w3.org/2000/svg">
<path fill-rule="evenodd" clip-rule="evenodd" d="M48.5954 38.3978L46.2506 39.2989C43.0042 40.4136 38.1815 40.4287 35.1034 38.9828C31.5393 37.3083 28.9907 32.3289 33.0012 29.0769C35.7743 26.828 39.6147 26.2556 43.1762 26.3645C46.9422 26.4792 47.8294 27.4666 48.3371 27.4622L48.3277 22.9796C46.3825 22.0193 43.405 20.9859 41.2535 20.4947C35.1202 19.1785 31.9908 19.0418 25.5061 19.7346C22.8438 20.0192 19.1591 21.3725 16.9481 22.8959C12.3618 26.0547 10.2077 31.9964 12.4768 37.2C15.6895 44.5674 24.4669 47.0051 31.8313 46.9869C36.2095 46.9762 44.4011 45.7255 48.561 43.2411L48.5954 38.3978Z" fill="#CBCECF"/>
<path d="M37.0685 1.7941L37.238 1.89927C46.4481 7.6073 53.5474 12.0067 61.3989 19.143L61.4258 19.1695C61.6665 19.4094 61.9053 19.6437 62.1286 19.8628C64.8529 22.5361 65.5688 23.2389 64.5727 28.4154L64.5177 28.6428C61.9735 39.2332 60.012 47.3954 55.7008 57.1181L55.6858 57.1508C55.5264 57.4701 55.3819 57.7642 55.2469 58.04C53.5643 61.4759 53.1222 62.379 47.9238 63.0251L47.6905 63.0434C36.9084 63.8784 28.598 64.522 18.081 63.396L18.0485 63.3929C17.5965 63.323 17.3257 63.2833 17.0725 63.2468C13.309 62.697 12.3198 62.5528 10.1033 57.7717L10.0126 57.5539C5.89083 47.4798 2.71323 39.715 0.527922 29.2983L0.522295 29.2656C0.484154 29.0301 0.419126 28.6484 0.357225 28.2857C-0.286175 24.5122 -0.455622 23.5204 3.37476 19.9189L3.40102 19.8981L3.55234 19.7684C11.7915 12.707 18.1423 7.26409 27.3018 1.95217L27.3312 1.93453C27.6232 1.78276 27.9234 1.62344 28.2047 1.47482C31.568 -0.307369 32.4522 -0.775901 37.0354 1.77962L37.0679 1.79473L37.0685 1.7941ZM36.4464 3.19655L36.2769 3.09138L36.2782 3.08886C32.4359 0.950867 31.6968 1.34194 28.9082 2.81933C28.6418 2.96039 28.3579 3.1109 28.0228 3.28471C18.9945 8.52358 12.6962 13.9212 4.52775 20.9221L4.40207 21.0297L4.40333 21.031C1.17132 24.0702 1.31201 24.8945 1.84661 28.0294C1.8885 28.2775 1.93477 28.5464 2.00855 29.0005C4.16572 39.2761 7.31832 46.981 11.4082 56.9757L11.4801 57.1514C13.344 61.1642 14.1681 61.2851 17.2863 61.7404C17.6452 61.7927 18.0285 61.8487 18.2736 61.8865C28.6293 62.9924 36.8791 62.3538 47.5786 61.525L47.7449 61.5125C52.1318 60.9671 52.4995 60.2171 53.8944 57.3675C54.032 57.086 54.1796 56.7862 54.3365 56.4719C58.5833 46.8878 60.5291 38.7899 63.0527 28.2857L63.0902 28.1301C63.9318 23.754 63.3378 23.1703 61.0769 20.9523C60.8649 20.7438 60.6392 20.5228 60.3891 20.2734C52.6464 13.236 45.5946 8.86617 36.447 3.19655H36.4464Z" fill="#CBCECF"/>
<path fill-rule="evenodd" clip-rule="evenodd" d="M43.9644 28.9492H53.4178V32.0734H51.1724V36.8337H46.2097V32.0734H43.9644V28.9492Z" fill="#CBCECF" stroke="#CBCECF" stroke-width="0.755617" stroke-miterlimit="22.9256"/>
</svg>
