<svg width="20" height="20" viewBox="0 0 20 20" fill="none" xmlns="http://www.w3.org/2000/svg">
<path d="M14.1665 2.91675H5.83317C3.33317 2.91675 1.6665 4.16675 1.6665 7.08342V12.9167C1.6665 15.8334 3.33317 17.0834 5.83317 17.0834H14.1665C16.6665 17.0834 18.3332 15.8334 18.3332 12.9167V7.08342C18.3332 4.16675 16.6665 2.91675 14.1665 2.91675ZM14.5582 7.99175L11.9498 10.0751C11.3998 10.5167 10.6998 10.7334 9.99984 10.7334C9.29984 10.7334 8.5915 10.5167 8.04984 10.0751L5.4415 7.99175C5.17484 7.77508 5.13317 7.37508 5.3415 7.10841C5.55817 6.84175 5.94984 6.79175 6.2165 7.00841L8.82484 9.09175C9.45817 9.60008 10.5332 9.60008 11.1665 9.09175L13.7748 7.00841C14.0415 6.79175 14.4415 6.83341 14.6498 7.10841C14.8665 7.37508 14.8248 7.77508 14.5582 7.99175Z" fill="white"/>
</svg>
