<svg width="18" height="18" viewBox="0 0 18 18" fill="none" xmlns="http://www.w3.org/2000/svg">
<path d="M0 18L1.27221 13.3802C0.485673 12.0242 0.0730658 10.4886 0.0773638 8.91873C0.0773638 3.99953 4.10028 0 9.03868 0C11.437 0 13.6891 0.928232 15.3782 2.61359C17.0716 4.29895 18.0043 6.5404 18 8.92301C18 13.8422 13.9771 17.8417 9.03438 17.8417H9.03008C7.53008 17.8417 6.05587 17.4653 4.74498 16.7552L0 18ZM4.97278 15.1426L5.24355 15.3051C6.38681 15.981 7.6977 16.336 9.03438 16.3403H9.03868C13.1433 16.3403 16.4871 13.0166 16.4871 8.92728C16.4871 6.94677 15.7135 5.08603 14.308 3.68299C12.9026 2.27994 11.0286 1.50998 9.03868 1.50998C4.93409 1.5057 1.59026 4.82937 1.59026 8.91873C1.59026 10.3175 1.98137 11.682 2.72922 12.8626L2.90544 13.145L2.15329 15.8783L4.97278 15.1426Z" fill="white"/>
<path d="M0 18L1.27221 13.3802C0.485673 12.0242 0.0730658 10.4886 0.0773638 8.91873C0.0773638 3.99953 4.10028 0 9.03868 0C11.437 0 13.6891 0.928232 15.3782 2.61359C17.0716 4.29895 18.0043 6.5404 18 8.92301C18 13.8422 13.9771 17.8417 9.03438 17.8417H9.03008C7.53008 17.8417 6.05587 17.4653 4.74498 16.7552L0 18ZM4.97278 15.1426L5.24355 15.3051C6.38681 15.981 7.6977 16.336 9.03438 16.3403H9.03868C13.1433 16.3403 16.4871 13.0166 16.4871 8.92728C16.4871 6.94677 15.7135 5.08603 14.308 3.68299C12.9026 2.27994 11.0286 1.50998 9.03868 1.50998C4.93409 1.5057 1.59026 4.82937 1.59026 8.91873C1.59026 10.3175 1.98137 11.682 2.72922 12.8626L2.90544 13.145L2.15329 15.8783L4.97278 15.1426Z" fill="white"/>
<path fill-rule="evenodd" clip-rule="evenodd" d="M6.79914 5.18882C6.63151 4.81667 6.4553 4.80812 6.29627 4.80384C6.16733 4.79956 6.0169 4.79956 5.86647 4.79956C5.71604 4.79956 5.47535 4.85517 5.26905 5.0776C5.06275 5.30004 4.48682 5.83901 4.48682 6.93834C4.48682 8.0334 5.29054 9.09424 5.40229 9.24395C5.51404 9.39367 6.95386 11.7164 9.2275 12.6104C11.1186 13.3547 11.5054 13.205 11.9137 13.1665C12.3221 13.128 13.2375 12.6275 13.4266 12.1056C13.6115 11.5838 13.6115 11.1389 13.5556 11.0448C13.4997 10.9507 13.3493 10.8951 13.1258 10.7839C12.9023 10.6727 11.802 10.1337 11.5957 10.0567C11.3894 9.98397 11.239 9.94547 11.0928 10.1679C10.9424 10.3903 10.5126 10.8908 10.3837 11.0405C10.2547 11.1902 10.1215 11.2074 9.89799 11.0961C9.67449 10.9849 8.95243 10.7497 8.09713 9.98825C7.43094 9.39795 6.97965 8.66648 6.85071 8.44405C6.72177 8.22161 6.83782 8.10184 6.94956 7.99063C7.04842 7.89224 7.17306 7.72969 7.28481 7.60137C7.39656 7.47304 7.43524 7.37893 7.5083 7.22922C7.58137 7.0795 7.54699 6.95118 7.49111 6.83996C7.43524 6.73302 6.99684 5.62941 6.79914 5.18882Z" fill="white"/>
</svg>
