<svg width="16" height="16" viewBox="0 0 16 16" fill="none" xmlns="http://www.w3.org/2000/svg">
<path fill-rule="evenodd" clip-rule="evenodd" d="M1.3581 7.52888C5.49242 5.72762 8.24928 4.54013 9.62868 3.96639C13.5672 2.32824 14.3855 2.04368 14.919 2.03428C15.0363 2.03221 15.2986 2.06129 15.4685 2.19916C15.612 2.31558 15.6515 2.47285 15.6703 2.58323C15.6892 2.69361 15.7128 2.94505 15.6941 3.14152C15.4806 5.38402 14.5571 10.826 14.0873 13.3376C13.8885 14.4004 13.4971 14.7567 13.1181 14.7916C12.2945 14.8674 11.6692 14.2473 10.8715 13.7244C9.62329 12.9062 8.91814 12.3969 7.70655 11.5985C6.30634 10.6758 7.21404 10.1686 8.01201 9.33981C8.22084 9.12291 11.8495 5.82235 11.9197 5.52294C11.9285 5.48549 11.9367 5.34591 11.8538 5.27221C11.7708 5.1985 11.6484 5.22371 11.5601 5.24375C11.4349 5.27216 9.44093 6.59013 5.57811 9.19764C5.01211 9.5863 4.49945 9.77566 4.04013 9.76574C3.53376 9.7548 2.55971 9.47943 1.83561 9.24405C0.947461 8.95535 0.241581 8.80271 0.303048 8.31241C0.335063 8.05703 0.686745 7.79585 1.3581 7.52888Z" fill="white"/>
</svg>
