<svg width="20" height="20" viewBox="0 0 20 20" fill="none" xmlns="http://www.w3.org/2000/svg">
<path d="M14.1665 1.66675H5.83317C3.53317 1.66675 1.6665 3.52508 1.6665 5.81675V10.8001V11.6334C1.6665 13.9251 3.53317 15.7834 5.83317 15.7834H7.08317C7.30817 15.7834 7.60817 15.9334 7.74984 16.1167L8.99984 17.7751C9.54984 18.5084 10.4498 18.5084 10.9998 17.7751L12.2498 16.1167C12.4082 15.9084 12.6582 15.7834 12.9165 15.7834H14.1665C16.4665 15.7834 18.3332 13.9251 18.3332 11.6334V5.81675C18.3332 3.52508 16.4665 1.66675 14.1665 1.66675ZM6.6665 10.0001C6.19984 10.0001 5.83317 9.62508 5.83317 9.16675C5.83317 8.70841 6.20817 8.33341 6.6665 8.33341C7.12484 8.33341 7.49984 8.70841 7.49984 9.16675C7.49984 9.62508 7.13317 10.0001 6.6665 10.0001ZM9.99984 10.0001C9.53317 10.0001 9.1665 9.62508 9.1665 9.16675C9.1665 8.70841 9.5415 8.33341 9.99984 8.33341C10.4582 8.33341 10.8332 8.70841 10.8332 9.16675C10.8332 9.62508 10.4665 10.0001 9.99984 10.0001ZM13.3332 10.0001C12.8665 10.0001 12.4998 9.62508 12.4998 9.16675C12.4998 8.70841 12.8748 8.33341 13.3332 8.33341C13.7915 8.33341 14.1665 8.70841 14.1665 9.16675C14.1665 9.62508 13.7998 10.0001 13.3332 10.0001Z" fill="white"/>
</svg>
