<svg width="60" height="24" viewBox="0 0 60 24" fill="none" xmlns="http://www.w3.org/2000/svg">
<path fill-rule="evenodd" clip-rule="evenodd" d="M0 23.6676H5.93935V10.068C8.70479 14.7558 11.4038 19.331 14.1581 23.9999C16.8961 19.3745 19.6505 14.7075 22.3898 10.0652V23.6676H26.9045H28.3292H44.4299L41.6709 19.1256H28.3292V14.0676H38.8402L36.0812 9.52551H28.3293V4.5884H33.3377L30.5787 0.0463433C27.8495 0.0463433 25.1579 0 22.39 0L14.1648 14.3531L5.93951 0H0.000156708V23.6677L0 23.6676ZM60 0.0462913C50.4816 0.0462913 41.1471 0.0462913 31.6269 0.0462913L34.386 4.58835H41.1538H42.9682V19.1256L45.9334 23.9999L48.9075 19.1256V4.58835H50.4731H57.2409L59.9999 0.0462913H60Z" fill="white"/>
</svg>
