<svg width="22" height="32" viewBox="0 0 22 32" fill="none" xmlns="http://www.w3.org/2000/svg">
<path d="M14.5 20.6666C14.5 18.7336 12.933 17.1666 11 17.1666C9.067 17.1666 7.5 18.7336 7.5 20.6666C7.5 22.5996 9.067 24.1666 11 24.1666C12.933 24.1666 14.5 22.5996 14.5 20.6666Z" fill="#CBCECF"/>
<path fill-rule="evenodd" clip-rule="evenodd" d="M11 31.1666C5.20101 31.1666 0.5 26.4656 0.5 20.6666L0.5 11.3333C0.500001 5.53426 5.20101 0.833252 11 0.833252C16.799 0.833252 21.5 5.53426 21.5 11.3333V20.6666C21.5 26.4656 16.799 31.1666 11 31.1666ZM5.16667 20.6666L5.16667 11.3333C5.16667 8.11159 7.77834 5.49992 11 5.49992C14.2217 5.49992 16.8333 8.11159 16.8333 11.3333V20.6666C16.8333 23.8882 14.2217 26.4999 11 26.4999C7.77834 26.4999 5.16667 23.8882 5.16667 20.6666Z" fill="#CBCECF"/>
</svg>
