<svg width="32" height="32" viewBox="0 0 32 32" fill="none" xmlns="http://www.w3.org/2000/svg">
<path fill-rule="evenodd" clip-rule="evenodd" d="M19.6531 22.205C18.5192 22.8213 17.2197 23.1714 15.8384 23.1714C11.4201 23.1714 7.83838 19.5897 7.83838 15.1714C7.83838 10.7531 11.4201 7.17139 15.8384 7.17139C20.2567 7.17139 23.8384 10.7531 23.8384 15.1714C23.8384 17.24 23.0532 19.1253 21.7647 20.5454L24.3907 23.1714L22.505 25.057L19.6531 22.205ZM21.1717 15.1714C21.1717 18.1169 18.7839 20.5047 15.8384 20.5047C12.8929 20.5047 10.505 18.1169 10.505 15.1714C10.505 12.2259 12.8929 9.83805 15.8384 9.83805C18.7839 9.83805 21.1717 12.2259 21.1717 15.1714Z" fill="#CBCECF"/>
</svg>
