<svg width="115" height="108" viewBox="0 0 115 108" fill="none" xmlns="http://www.w3.org/2000/svg">
<g clip-path="url(#clip0_1_3335)">
<path fill-rule="evenodd" clip-rule="evenodd" d="M73.5954 38.3978L71.2506 39.2989C68.0042 40.4136 63.1815 40.4287 60.1034 38.9828C56.5393 37.3083 53.9907 32.3289 58.0012 29.0769C60.7743 26.828 64.6147 26.2556 68.1762 26.3645C71.9422 26.4792 72.8294 27.4666 73.3371 27.4622L73.3277 22.9796C71.3825 22.0193 68.405 20.9859 66.2535 20.4947C60.1202 19.1785 56.9908 19.0418 50.5061 19.7346C47.8438 20.0192 44.1591 21.3725 41.9481 22.8959C37.3618 26.0547 35.2077 31.9964 37.4768 37.2C40.6895 44.5674 49.4669 47.0051 56.8313 46.9869C61.2095 46.9762 69.4011 45.7255 73.561 43.2411L73.5954 38.3978Z" fill="#CBCECF"/>
<path d="M62.0685 1.7941L62.238 1.89927C71.4481 7.6073 78.5474 12.0067 86.3989 19.143L86.4258 19.1695C86.6665 19.4094 86.9053 19.6437 87.1286 19.8628C89.8529 22.5361 90.5688 23.2389 89.5727 28.4154L89.5177 28.6428C86.9735 39.2332 85.012 47.3954 80.7008 57.1181L80.6858 57.1508C80.5264 57.4701 80.3819 57.7642 80.2469 58.04C78.5643 61.4759 78.1222 62.379 72.9238 63.0251L72.6905 63.0434C61.9084 63.8784 53.598 64.522 43.081 63.396L43.0485 63.3929C42.5965 63.323 42.3257 63.2833 42.0725 63.2468C38.309 62.697 37.3198 62.5528 35.1033 57.7717L35.0126 57.5539C30.8908 47.4798 27.7132 39.715 25.5279 29.2983L25.5223 29.2656C25.4842 29.0301 25.4191 28.6484 25.3572 28.2857C24.7138 24.5122 24.5444 23.5204 28.3748 19.9189L28.401 19.8981L28.5523 19.7684C36.7915 12.707 43.1423 7.26409 52.3018 1.95217L52.3312 1.93453C52.6232 1.78276 52.9234 1.62344 53.2047 1.47482C56.568 -0.307369 57.4522 -0.775901 62.0354 1.77962L62.0679 1.79473L62.0685 1.7941ZM61.4464 3.19655L61.2769 3.09138L61.2782 3.08886C57.4359 0.950867 56.6968 1.34194 53.9082 2.81933C53.6418 2.96039 53.3579 3.1109 53.0228 3.28471C43.9945 8.52358 37.6962 13.9212 29.5278 20.9221L29.4021 21.0297L29.4033 21.031C26.1713 24.0702 26.312 24.8945 26.8466 28.0294C26.8885 28.2775 26.9348 28.5464 27.0086 29.0005C29.1657 39.2761 32.3183 46.981 36.4082 56.9757L36.4801 57.1514C38.344 61.1642 39.1681 61.2851 42.2863 61.7404C42.6452 61.7927 43.0285 61.8487 43.2736 61.8865C53.6293 62.9924 61.8791 62.3538 72.5786 61.525L72.7449 61.5125C77.1318 60.9671 77.4995 60.2171 78.8944 57.3675C79.032 57.086 79.1796 56.7862 79.3365 56.4719C83.5833 46.8878 85.5291 38.7899 88.0527 28.2857L88.0902 28.1301C88.9318 23.754 88.3378 23.1703 86.0769 20.9523C85.8649 20.7438 85.6392 20.5228 85.3891 20.2734C77.6464 13.236 70.5946 8.86617 61.447 3.19655H61.4464Z" fill="#CBCECF"/>
<path fill-rule="evenodd" clip-rule="evenodd" d="M68.9644 28.9492H78.4178V32.0734H76.1724V36.8337H71.2097V32.0734H68.9644V28.9492Z" fill="#CBCECF" stroke="#CBCECF" stroke-width="0.755617" stroke-miterlimit="22.9256"/>
</g>
<path d="M6.336 102.66H4.992C4.848 103.572 4.308 104.076 3.492 104.076C2.448 104.076 1.836 103.26 1.836 101.892C1.836 100.512 2.484 99.672 3.54 99.672C4.284 99.672 4.776 100.104 4.932 100.884H6.288C6.132 99.456 5.112 98.616 3.528 98.616C1.644 98.616 0.444 99.924 0.444 101.964C0.444 103.836 1.608 105.156 3.492 105.156C5.04 105.156 6.144 104.184 6.336 102.66ZM8.69597 98.808H7.41197V107.292H8.76797V104.184C9.25997 104.868 9.94397 105.156 10.784 105.156C12.452 105.156 13.532 103.884 13.532 101.928C13.532 99.924 12.428 98.628 10.712 98.628C9.90797 98.628 9.12797 98.94 8.69597 99.636V98.808ZM10.436 99.732C11.492 99.732 12.152 100.584 12.152 101.928C12.152 103.248 11.504 104.064 10.46 104.064C9.36797 104.064 8.71997 103.248 8.71997 101.904C8.71997 100.548 9.35597 99.732 10.436 99.732ZM20.2679 103.068H18.9599C18.6839 103.86 18.2399 104.196 17.4839 104.196C16.4279 104.196 15.8159 103.488 15.7799 102.24H20.3519V102.096C20.3519 99.96 19.2239 98.628 17.4119 98.628C15.6719 98.628 14.4119 100.032 14.4119 101.976C14.4119 103.824 15.5519 105.204 17.4599 105.204C18.8519 105.204 19.9559 104.424 20.2679 103.068ZM18.9839 101.328H15.8039C15.9359 100.236 16.4999 99.648 17.3999 99.648C18.2999 99.648 18.8999 100.284 18.9839 101.328ZM27.6113 106.968V103.92H26.7833V98.808H22.1273V99.504C22.1273 101.544 21.8513 102.852 21.3953 103.92H20.6153V106.968H21.9113V105H26.3153V106.968H27.6113ZM25.4393 103.92H22.7993C23.0513 103.308 23.4353 101.712 23.4353 100.284V99.864H25.4393V103.92ZM34.0626 102.66H32.7186C32.5746 103.572 32.0346 104.076 31.2186 104.076C30.1746 104.076 29.5626 103.26 29.5626 101.892C29.5626 100.512 30.2106 99.672 31.2666 99.672C32.0106 99.672 32.5026 100.104 32.6586 100.884H34.0146C33.8586 99.456 32.8386 98.616 31.2546 98.616C29.3706 98.616 28.1706 99.924 28.1706 101.964C28.1706 103.836 29.3346 105.156 31.2186 105.156C32.7666 105.156 33.8706 104.184 34.0626 102.66ZM39.7619 99.888V98.808H34.3139V99.888H36.3539V105H37.7219V99.888H39.7619ZM46.0723 103.248C46.0723 102.42 45.6883 101.856 44.9083 101.652V101.628C45.4963 101.352 45.7963 101.004 45.7963 100.32C45.7963 99.36 45.1123 98.808 43.9603 98.808H40.5403V105H43.7923C45.2563 105 46.0723 104.364 46.0723 103.248ZM43.7923 102.264C44.3923 102.264 44.7163 102.588 44.7163 103.128C44.7163 103.68 44.3923 103.968 43.7923 103.968H41.9083V102.264H43.7923ZM43.6123 99.84C44.1763 99.84 44.4403 100.044 44.4403 100.524C44.4403 101.004 44.1523 101.268 43.6483 101.268H41.9083V99.84H43.6123ZM52.2761 105L54.5921 100.488H54.6281V105H55.9961V98.808H54.2681L51.9521 103.32H51.9161V98.808H50.5481V105H52.2761ZM62.5028 103.164C62.5028 102.204 61.8788 101.736 61.3028 101.628V101.604C61.8068 101.496 62.2988 101.004 62.2988 100.296C62.2988 99.084 61.2188 98.628 59.9468 98.628C58.6988 98.628 57.3908 99.024 57.2468 100.596H58.6268C58.7468 100.056 59.0828 99.672 59.8148 99.672C60.6188 99.672 60.9428 99.996 60.9428 100.452C60.9428 101.076 60.4268 101.268 59.7068 101.268H59.1548V102.276H59.9228C60.8708 102.276 61.1348 102.672 61.1348 103.188C61.1348 103.776 60.6188 104.112 59.8508 104.112C59.2508 104.112 58.5668 103.92 58.4468 103.068H57.0668C57.1268 104.352 58.0628 105.168 59.8628 105.168C61.1708 105.168 62.5028 104.508 62.5028 103.164ZM64.9814 105V100.884H65.0054L66.4814 105H67.8614L69.3374 100.884H69.3614V105H70.6814V98.808H68.8814L67.2134 103.728H67.1894L65.4614 98.808H63.6614V105H64.9814ZM77.6546 103.068H76.3466C76.0706 103.86 75.6266 104.196 74.8706 104.196C73.8146 104.196 73.2026 103.488 73.1666 102.24H77.7386V102.096C77.7386 99.96 76.6106 98.628 74.7986 98.628C73.0586 98.628 71.7986 100.032 71.7986 101.976C71.7986 103.824 72.9386 105.204 74.8466 105.204C76.2386 105.204 77.3426 104.424 77.6546 103.068ZM76.3706 101.328H73.1906C73.3226 100.236 73.8866 99.648 74.7866 99.648C75.6866 99.648 76.2866 100.284 76.3706 101.328ZM80.0866 98.808H78.8026V107.292H80.1586V104.184C80.6506 104.868 81.3346 105.156 82.1746 105.156C83.8426 105.156 84.9226 103.884 84.9226 101.928C84.9226 99.924 83.8186 98.628 82.1026 98.628C81.2986 98.628 80.5186 98.94 80.0866 99.636V98.808ZM81.8266 99.732C82.8826 99.732 83.5426 100.584 83.5426 101.928C83.5426 103.248 82.8946 104.064 81.8506 104.064C80.7586 104.064 80.1106 103.248 80.1106 101.904C80.1106 100.548 80.7466 99.732 81.8266 99.732ZM91.6585 103.068H90.3505C90.0745 103.86 89.6305 104.196 88.8745 104.196C87.8185 104.196 87.2065 103.488 87.1705 102.24H91.7425V102.096C91.7425 99.96 90.6145 98.628 88.8025 98.628C87.0625 98.628 85.8025 100.032 85.8025 101.976C85.8025 103.824 86.9425 105.204 88.8505 105.204C90.2425 105.204 91.3465 104.424 91.6585 103.068ZM90.3745 101.328H87.1945C87.3265 100.236 87.8905 99.648 88.7905 99.648C89.6905 99.648 90.2905 100.284 90.3745 101.328ZM94.1505 105V102.312H96.8625V105H98.2305V98.808H96.8625V101.232H94.1505V98.808H92.7825V105H94.1505ZM101.401 105L103.717 100.488H103.753V105H105.121V98.808H103.393L101.077 103.32H101.041V98.808H99.6731V105H101.401ZM111.256 96.252H110.56C110.404 96.876 110.008 97.164 109.288 97.164C108.568 97.164 108.172 96.876 108.016 96.252H107.32C107.44 97.404 108.064 97.944 109.288 97.944C110.512 97.944 111.136 97.404 111.256 96.252ZM108.292 105L110.608 100.488H110.644V105H112.012V98.808H110.284L107.968 103.32H107.932V98.808H106.564V105H108.292Z" fill="#CBCECF"/>
<path d="M10.17 78.184V80.578H4.05V91H1.242V78.184H10.17ZM17.9139 77.878C19.7859 77.878 21.2979 78.502 22.4499 79.75C23.6139 80.986 24.1959 82.606 24.1959 84.61C24.1959 86.614 23.6139 88.234 22.4499 89.47C21.2979 90.694 19.7799 91.306 17.8959 91.306C15.9999 91.306 14.4699 90.694 13.3059 89.47C12.1419 88.234 11.5599 86.614 11.5599 84.61C11.5599 82.582 12.1359 80.956 13.2879 79.732C14.4519 78.496 15.9939 77.878 17.9139 77.878ZM17.8779 80.182C16.8219 80.182 15.9759 80.578 15.3399 81.37C14.7159 82.162 14.4039 83.224 14.4039 84.556C14.4039 85.936 14.7159 87.016 15.3399 87.796C15.9639 88.576 16.8219 88.972 17.9139 88.984C18.9819 88.984 19.8219 88.588 20.4339 87.796C21.0459 87.004 21.3519 85.924 21.3519 84.556C21.3519 83.212 21.0399 82.15 20.4159 81.37C19.7919 80.578 18.9459 80.182 17.8779 80.182ZM38.1157 86.05C37.9717 87.658 37.4077 88.936 36.4237 89.884C35.4397 90.832 34.0897 91.306 32.3737 91.306C30.5137 91.306 29.0137 90.694 27.8737 89.47C26.7457 88.234 26.1817 86.602 26.1817 84.574C26.1817 82.654 26.7517 81.058 27.8917 79.786C29.0437 78.514 30.5737 77.878 32.4817 77.878C34.0057 77.878 35.2837 78.31 36.3157 79.174C37.3477 80.038 37.9177 81.136 38.0257 82.468H35.2717C35.1277 81.76 34.8037 81.214 34.2997 80.83C33.8077 80.434 33.1837 80.236 32.4277 80.236C31.6477 80.236 30.9877 80.458 30.4477 80.902C29.9197 81.334 29.5477 81.868 29.3317 82.504C29.1157 83.14 29.0077 83.836 29.0077 84.592C29.0077 85.912 29.3137 86.968 29.9257 87.76C30.5377 88.54 31.3597 88.93 32.3917 88.93C34.1077 88.93 35.0857 87.97 35.3257 86.05H38.1157ZM40.5675 78.184H46.0935C47.5335 78.184 48.6735 78.532 49.5135 79.228C50.3655 79.912 50.7915 80.938 50.7915 82.306C50.7915 83.65 50.3715 84.67 49.5315 85.366C48.6915 86.05 47.5935 86.392 46.2375 86.392H43.3575V91H40.5675V78.184ZM43.3575 80.488V84.178H45.8595C47.3235 84.178 48.0555 83.566 48.0555 82.342C48.0555 81.106 47.3295 80.488 45.8775 80.488H43.3575ZM62.7074 78.184V80.488H55.8854V83.278H62.1494V85.492H55.8854V88.642H62.8334V91H53.0954V78.184H62.7074ZM74.9192 78.184V80.488H68.0972V83.278H74.3612V85.492H68.0972V88.642H75.0452V91H65.3072V78.184H74.9192ZM88.9671 86.05C88.8231 87.658 88.2591 88.936 87.2751 89.884C86.2911 90.832 84.9411 91.306 83.2251 91.306C81.3651 91.306 79.8651 90.694 78.7251 89.47C77.5971 88.234 77.0331 86.602 77.0331 84.574C77.0331 82.654 77.6031 81.058 78.7431 79.786C79.8951 78.514 81.4251 77.878 83.3331 77.878C84.8571 77.878 86.1351 78.31 87.1671 79.174C88.1991 80.038 88.7691 81.136 88.8771 82.468H86.1231C85.9791 81.76 85.6551 81.214 85.1511 80.83C84.6591 80.434 84.0351 80.236 83.2791 80.236C82.4991 80.236 81.8391 80.458 81.2991 80.902C80.7711 81.334 80.3991 81.868 80.1831 82.504C79.9671 83.14 79.8591 83.836 79.8591 84.592C79.8591 85.912 80.1651 86.968 80.7771 87.76C81.3891 88.54 82.2111 88.93 83.2431 88.93C84.9591 88.93 85.9371 87.97 86.1771 86.05H88.9671ZM100.606 78.184V80.578H96.7545V91H93.9285V80.578H90.0765V78.184H100.606ZM102.646 78.184H108.172C109.612 78.184 110.752 78.532 111.592 79.228C112.444 79.912 112.87 80.938 112.87 82.306C112.87 83.65 112.45 84.67 111.61 85.366C110.77 86.05 109.672 86.392 108.316 86.392H105.436V91H102.646V78.184ZM105.436 80.488V84.178H107.938C109.402 84.178 110.134 83.566 110.134 82.342C110.134 81.106 109.408 80.488 107.956 80.488H105.436Z" fill="#CBCECF"/>
<defs>
<clipPath id="clip0_1_3335">
<rect width="65" height="64" fill="white" transform="translate(25)"/>
</clipPath>
</defs>
</svg>
