<svg width="32" height="32" viewBox="0 0 32 32" fill="none" xmlns="http://www.w3.org/2000/svg">
<path fill-rule="evenodd" clip-rule="evenodd" d="M20.4458 18.968C21.8088 17.7473 22.6665 15.9739 22.6665 14.0002C22.6665 10.3183 19.6818 7.3335 15.9999 7.3335C12.318 7.3335 9.33321 10.3183 9.33321 14.0002C9.33321 15.9739 10.1909 17.7473 11.554 18.968C9.54016 19.8927 7.86386 21.4261 6.76074 23.3326L9.07053 24.6662C10.4539 22.2753 13.039 20.6668 15.9999 20.6668C18.9607 20.6668 21.5459 22.2753 22.9292 24.6662L25.239 23.3326C24.1359 21.4261 22.4596 19.8926 20.4458 18.968ZM19.9999 14.0002C19.9999 16.2093 18.209 18.0002 15.9999 18.0002C13.7907 18.0002 11.9999 16.2093 11.9999 14.0002C11.9999 11.791 13.7907 10.0002 15.9999 10.0002C18.209 10.0002 19.9999 11.791 19.9999 14.0002Z" fill="#CBCECF"/>
</svg>
