<svg width="20" height="20" viewBox="0 0 20 20" fill="none" xmlns="http://www.w3.org/2000/svg">
<path fill-rule="evenodd" clip-rule="evenodd" d="M9.99984 0.666504C4.84518 0.666504 0.666504 4.84518 0.666504 9.99984C0.666504 13.8821 3.03688 17.2108 6.40932 18.6175C7.48488 19.0662 8.66235 19.3193 9.89737 19.3326C9.93148 19.333 9.96564 19.3332 9.99984 19.3332C10.034 19.3332 10.0682 19.333 10.1023 19.3326C11.3373 19.3193 12.5148 19.0662 13.5904 18.6175C16.9628 17.2108 19.3332 13.8821 19.3332 9.99984C19.3332 4.84518 15.1545 0.666504 9.99984 0.666504ZM11.2451 11.3332C11.0694 12.6513 10.6371 13.8882 9.99984 14.9921C9.36262 13.8882 8.93024 12.6513 8.75462 11.3332H11.2451ZM13.9305 11.3332C13.7455 13.1012 13.1969 14.761 12.3607 16.2364C14.4742 15.4359 16.0746 13.5919 16.5331 11.3332H13.9305ZM16.5331 8.6665H13.9305C13.7455 6.89846 13.1969 5.23866 12.3606 3.76325C14.4742 4.56373 16.0746 6.40778 16.5331 8.6665ZM11.2451 8.6665H8.75462C8.93024 7.34839 9.36263 6.11145 9.99984 5.00762C10.637 6.11145 11.0694 7.34839 11.2451 8.6665ZM6.06918 8.6665C6.25414 6.89846 6.80281 5.23866 7.63903 3.76325C5.52548 4.56374 3.92502 6.40778 3.46653 8.6665H6.06918ZM3.46653 11.3332C3.92502 13.5919 5.52547 15.4359 7.639 16.2364C6.80279 14.761 6.25413 13.1012 6.06917 11.3332H3.46653Z" fill="#CBCECF"/>
</svg>
